<svg id="Layer_1" height="512" viewBox="0 0 512 512" width="512" xmlns="http://www.w3.org/2000/svg" xmlns:xlink="http://www.w3.org/1999/xlink" data-name="Layer 1"><linearGradient id="linear-gradient" gradientUnits="userSpaceOnUse" x1="256" x2="256" y1="454.39" y2="54.629"><stop offset=".322" stop-color="#a163f5"/><stop offset=".466" stop-color="#b074ee"/><stop offset=".752" stop-color="#d8a1dd"/><stop offset=".898" stop-color="#efbad3"/></linearGradient><path d="m482.929 280.213c0-.039-.014-.077-.02-.117a6.956 6.956 0 0 0 -.169-.769c-.019-.069-.038-.138-.059-.206a7.039 7.039 0 0 0 -.314-.839 6.912 6.912 0 0 0 -.429-.787c-.036-.058-.074-.114-.112-.17a6.721 6.721 0 0 0 -.465-.626c-.026-.031-.049-.063-.075-.094a7.155 7.155 0 0 0 -.642-.649l-.1-.081a6.985 6.985 0 0 0 -.64-.485c-.046-.031-.091-.064-.137-.094a7.379 7.379 0 0 0 -.793-.438.378.378 0 0 1 -.04-.022l-105.654-48.805v-116.138c0-.023 0-.045 0-.068a6.894 6.894 0 0 0 -.066-.916c0-.035-.014-.069-.019-.1a7.024 7.024 0 0 0 -.169-.773c-.021-.074-.042-.149-.065-.223a7.116 7.116 0 0 0 -.284-.759c-.011-.026-.02-.053-.031-.078l-.006-.015a7.211 7.211 0 0 0 -.419-.764c-.036-.059-.076-.116-.114-.173a6.977 6.977 0 0 0 -.45-.6c-.032-.039-.062-.079-.095-.117a6.929 6.929 0 0 0 -.638-.644c-.028-.026-.06-.048-.089-.074a6.985 6.985 0 0 0 -.64-.485c-.05-.034-.1-.069-.151-.1a7.161 7.161 0 0 0 -.79-.437c-.012 0-.021-.012-.033-.018l-110.285-50.949a7 7 0 0 0 -5.872 0l-110.28 50.941c-.01.005-.018.012-.028.016a7.086 7.086 0 0 0 -.8.442c-.047.03-.093.063-.14.094a6.926 6.926 0 0 0 -.653.5l-.08.065a7 7 0 0 0 -.641.648c-.032.037-.06.075-.091.112a7.042 7.042 0 0 0 -.454.61c-.038.057-.077.113-.113.172a7.019 7.019 0 0 0 -.419.764l-.006.015c-.011.025-.02.052-.031.078a7.116 7.116 0 0 0 -.284.759c-.023.074-.044.149-.065.223a7.024 7.024 0 0 0 -.169.773c0 .035-.014.069-.019.1a6.894 6.894 0 0 0 -.066.916v.068 116.135l-105.661 48.805c-.016.008-.031.019-.048.027a7.177 7.177 0 0 0 -.777.429c-.053.034-.1.071-.156.106a7.163 7.163 0 0 0 -.62.47c-.036.031-.075.06-.11.092a6.775 6.775 0 0 0 -.636.643c-.029.033-.054.068-.083.1a6.9 6.9 0 0 0 -.459.617c-.038.058-.077.115-.114.174a6.378 6.378 0 0 0 -.742 1.625c-.021.068-.04.137-.059.206a6.956 6.956 0 0 0 -.169.769c-.006.04-.015.078-.02.117a6.82 6.82 0 0 0 -.067.922v.056 120.918a7 7 0 0 0 4.064 6.354l110.277 50.939a7 7 0 0 0 5.871 0l106.784-49.324 106.784 49.324a7 7 0 0 0 5.871 0l110.281-50.942a7 7 0 0 0 4.064-6.351v-120.916c0-.019 0-.037 0-.056a6.82 6.82 0 0 0 -.071-.922zm-337.529-41.844 93.5 43.193-92.62 42.314-93.511-42.72zm103.6-73.058v105.495l-96.28-44.475v-105.494zm110.28 61.02-96.28 44.475v-105.495l96.28-44.474zm-206 109.74 95.72-43.73v105.547l-95.72 44.212zm109.72-43.73 95.72 43.73v106.029l-95.72-44.212zm102.72 31.535-92.62-42.314 93.505-43.193 92.626 42.787zm-109.72-257.214 93.588 43.231-93.588 43.231-93.588-43.231zm-213 225.423 96.28 43.986v106.029l-96.28-44.471zm329.72 150.015v-106.029l96.28-43.986v105.544z" fill="url(#linear-gradient)"/></svg>